<svg version="1.1" id="Layer_1" xmlns="http://www.w3.org/2000/svg" xmlns:xlink="http://www.w3.org/1999/xlink" x="0px" y="0px"
	 width="100%" viewBox="0 0 1024 1024" enable-background="new 0 0 1024 1024" xml:space="preserve">
<path fill="#000000" opacity="1.000000" stroke="none" 
	d="
M222.313889,451.307434 
	C235.323013,439.544189 249.955521,435.280365 266.450073,440.961975 
	C282.845978,446.609589 292.794281,458.594513 295.033875,475.670593 
	C297.335052,493.216339 290.392059,507.364502 275.464050,517.057800 
	C262.455902,525.504395 248.534607,526.510132 234.650787,519.588074 
	C218.854691,511.712646 210.327179,498.568420 210.046936,480.840973 
	C209.869110,469.592346 214.125580,459.705811 222.313889,451.307434 
M261.436218,454.938843 
	C255.195053,452.771332 249.058243,453.031036 242.882050,455.389130 
	C231.839157,459.605377 224.476608,471.077698 225.374954,482.961304 
	C226.239380,494.396332 235.054489,505.029083 245.725769,507.508392 
	C258.009064,510.362213 270.922577,505.031403 276.730255,494.709503 
	C285.199951,479.656555 278.962524,462.723785 261.436218,454.938843 
z"/>
<path fill="#000000" opacity="1.000000" stroke="none" 
	d="
M407.251984,520.257935 
	C388.133484,517.617798 377.426483,505.714722 376.769440,486.929535 
	C376.582245,481.577759 376.794189,476.259613 378.066498,471.047058 
	C383.358368,449.366455 410.449066,439.051575 428.995850,451.641602 
	C430.093018,452.386383 431.141174,453.234528 432.092865,454.157562 
	C439.346191,461.192017 438.188263,466.087708 428.658264,469.349335 
	C426.494507,470.089874 425.538940,469.049988 424.662903,467.516693 
	C420.109039,459.546112 412.644287,459.105743 404.999847,460.569641 
	C397.995178,461.911041 394.612915,467.200897 393.221466,473.939911 
	C391.854095,480.562195 391.774963,487.163513 393.346954,493.740540 
	C395.197601,501.483429 400.148102,506.048523 407.264709,506.740143 
	C416.642517,507.651520 421.893829,505.066650 425.574890,497.151733 
	C426.897308,494.308319 428.178009,493.922150 430.910889,495.173584 
	C439.492004,499.103058 440.121368,500.893280 434.841553,508.715179 
	C428.309357,518.392395 418.574249,520.688171 407.251984,520.257935 
z"/>
<path fill="#000000" opacity="1.000000" stroke="none" 
	d="
M445.555298,498.163208 
	C444.246613,492.550140 444.964478,487.417297 446.294312,482.415375 
	C450.823578,465.378937 473.237213,457.924011 487.184692,468.723083 
	C492.846924,473.107147 496.726685,485.305298 494.930756,492.432037 
	C494.173370,495.437622 492.052032,495.827576 489.631714,495.823822 
	C482.970245,495.813507 476.308380,495.746246 469.647858,495.632690 
	C466.675629,495.582001 463.688965,495.008453 460.569397,496.045013 
	C459.572296,500.630646 461.643677,503.781158 465.334869,505.986603 
	C470.077606,508.820312 476.888275,508.189240 480.867706,504.923615 
	C482.343567,503.712494 483.038330,501.026031 485.431641,501.536469 
	C488.402496,502.170044 490.734131,504.282623 493.045624,506.154480 
	C494.875366,507.636200 493.408783,509.190979 492.509186,510.521759 
	C486.635132,519.210938 477.913055,521.088806 468.315125,520.092224 
	C455.397491,518.750854 447.910797,511.456696 445.555298,498.163208 
M476.135132,485.834290 
	C480.947723,485.288940 482.091370,483.034698 479.233673,479.205597 
	C476.435181,475.455841 472.492859,474.676056 468.139496,475.901367 
	C463.549744,477.193237 461.055573,480.212738 460.673523,485.014435 
	C461.437561,485.329041 461.882111,485.664856 462.333466,485.674225 
	C466.628510,485.763519 470.924744,485.797455 476.135132,485.834290 
z"/>
<path fill="#000000" opacity="1.000000" stroke="none" 
	d="
M781.093384,515.217285 
	C768.262756,523.273010 752.216980,521.510010 743.954163,511.368713 
	C735.592163,501.105621 736.029968,481.456940 744.835938,471.796417 
	C751.431091,464.561188 764.203186,461.934265 774.543945,465.615692 
	C785.794067,469.620850 790.283203,478.516174 791.159363,489.498627 
	C791.946533,499.365784 789.518311,508.374023 781.093384,515.217285 
M775.697266,486.237854 
	C773.752136,479.093781 769.688599,475.822144 763.496582,476.414978 
	C757.162598,477.021393 753.696045,480.904175 753.208313,488.313721 
	C753.001892,491.448669 753.013672,494.641815 753.360535,497.760193 
	C754.069580,504.135193 758.081299,507.611847 764.364258,507.683167 
	C770.535217,507.753204 774.891113,504.259979 775.662720,498.042969 
	C776.109436,494.443298 775.786743,490.748169 775.697266,486.237854 
z"/>
<path fill="#000000" opacity="1.000000" stroke="none" 
	d="
M515.380676,464.896484 
	C520.739990,464.870300 519.205444,468.743774 519.867676,472.004578 
	C524.819031,465.847534 531.145569,463.348145 538.643433,464.115753 
	C548.235413,465.097717 554.058777,471.247162 554.266296,481.060394 
	C554.502197,492.214813 554.262329,503.378571 554.378540,514.536743 
	C554.413574,517.900696 553.223572,519.583923 549.739563,519.287048 
	C549.243958,519.244690 548.740845,519.290588 548.241211,519.296448 
	C539.899719,519.394409 539.910400,519.394409 539.907593,511.215363 
	C539.904724,502.720978 539.846436,494.226471 539.875061,485.732239 
	C539.890442,481.156860 538.789490,477.398346 533.571533,476.450867 
	C528.533569,475.536102 523.487488,478.103180 521.590393,482.532196 
	C520.595276,484.855469 520.227051,487.301514 520.236023,489.842102 
	C520.264771,498.003113 520.130615,506.165497 520.239380,514.324951 
	C520.287292,517.923096 518.906616,519.290955 515.235840,519.355896 
	C505.719727,519.524170 505.714661,519.665527 505.705719,509.937073 
	C505.694092,497.278687 505.687805,484.620331 505.695251,471.961945 
	C505.699402,464.947479 505.714111,464.947174 512.969238,464.894165 
	C513.635498,464.889313 514.301697,464.891388 515.380676,464.896484 
z"/>
<path fill="#000000" opacity="1.000000" stroke="none" 
	d="
M802.630249,482.001862 
	C802.635376,477.505371 802.765259,473.503540 802.607300,469.513123 
	C802.481750,466.339264 803.755371,464.832275 806.935608,464.928131 
	C807.933350,464.958221 808.947998,465.010345 809.930237,464.874512 
	C814.943665,464.181519 817.199402,466.272736 816.120544,472.683075 
	C820.462341,467.300018 825.057129,464.749298 830.694824,464.089935 
	C842.059326,462.760742 850.692078,469.414398 851.130371,480.716766 
	C851.575256,492.190704 851.204712,503.694946 851.283875,515.185303 
	C851.304504,518.179321 850.005493,519.188354 847.086060,519.348389 
	C836.717834,519.916992 836.728271,520.003845 836.729858,509.827393 
	C836.731140,501.833588 836.710083,493.839783 836.711182,485.845978 
	C836.711792,481.328918 835.672241,477.486298 830.475769,476.469269 
	C825.292358,475.454742 820.213257,478.193146 818.244568,482.916656 
	C817.123108,485.607300 817.064514,488.437347 817.051880,491.266785 
	C817.018311,498.760773 816.927856,506.257294 817.083130,513.748230 
	C817.164856,517.690918 815.886597,519.807739 811.625610,519.315796 
	C810.475220,519.182983 809.285156,519.191589 808.132690,519.315552 
	C804.110962,519.748291 802.501648,518.196716 802.590332,513.975647 
	C802.810669,503.488586 802.642822,492.993378 802.630249,482.001862 
z"/>
<path fill="#000000" opacity="1.000000" stroke="none" 
	d="
M622.361084,497.573822 
	C623.120056,505.618134 625.060547,507.800476 630.969177,507.700409 
	C637.061462,507.597168 641.346436,503.503723 641.597168,496.785217 
	C641.907654,488.466064 641.650513,480.127136 641.807068,471.799896 
	C641.847839,469.631195 640.613770,466.522797 643.407227,465.559113 
	C647.008850,464.316711 650.974609,464.324738 654.665955,465.631073 
	C656.309570,466.212738 656.185059,468.083130 656.186584,469.570282 
	C656.202209,484.730560 656.167847,499.890900 656.200684,515.051086 
	C656.206970,517.952942 655.010132,519.425354 652.024658,519.272583 
	C651.194458,519.230103 650.350586,519.209045 649.527832,519.304993 
	C644.882507,519.846313 641.551636,518.822327 642.285767,513.143311 
	C640.278809,512.727356 639.881409,514.346069 639.030212,515.169983 
	C632.882446,521.120239 625.604614,521.649109 618.145874,518.831604 
	C610.978149,516.124084 608.712891,509.842896 608.637817,502.713470 
	C608.523865,491.885742 608.840210,481.048492 608.504272,470.229889 
	C608.305237,463.822388 612.543884,465.110260 616.199097,464.899536 
	C619.951172,464.683197 622.605408,465.173706 622.431580,470.137512 
	C622.116943,479.122650 622.351257,488.127014 622.361084,497.573822 
z"/>
<path fill="#000000" opacity="1.000000" stroke="none" 
	d="
M570.009033,504.420715 
	C569.877625,496.317627 569.749207,488.654633 569.795715,480.992676 
	C569.814087,477.964691 568.917419,476.189117 565.553467,476.354736 
	C560.993103,476.579224 561.787659,473.170288 561.696472,470.447388 
	C561.605652,467.737518 561.325623,464.738495 565.426392,464.943817 
	C569.133484,465.129395 569.796997,463.115234 569.794128,459.950073 
	C569.789978,455.387482 578.947754,450.715088 582.831421,453.254425 
	C585.037781,454.697052 584.348389,457.227020 584.175110,459.243530 
	C583.796936,463.645416 585.500061,465.478210 589.886353,464.884308 
	C590.867920,464.751404 591.883240,464.857635 592.882874,464.869415 
	C598.726746,464.938232 601.203857,468.862457 599.021973,474.441040 
	C598.105286,476.784821 596.138611,476.315399 594.395630,476.381866 
	C584.250916,476.768921 584.247253,476.752533 584.241089,486.928223 
	C584.238464,491.260406 584.188965,495.593811 584.273254,499.924469 
	C584.393555,506.109985 587.007324,508.623566 592.703369,506.723145 
	C598.944519,504.640839 598.619263,509.218262 599.971252,512.498108 
	C601.631653,516.525818 599.069824,517.902100 596.019897,518.998474 
	C583.153442,523.623596 572.997131,518.083557 570.009033,504.420715 
z"/>
<path fill="#000000" opacity="1.000000" stroke="none" 
	d="
M197.176758,511.357361 
	C197.192490,518.633484 197.319260,525.451355 197.159210,532.262512 
	C197.076996,535.761047 198.508392,536.958313 201.889816,536.885437 
	C208.867966,536.735168 215.852371,536.769592 222.832626,536.854919 
	C228.681763,536.926453 232.119598,539.760010 232.160309,544.303406 
	C232.200851,548.828125 228.796936,551.977112 223.025421,552.103271 
	C214.386414,552.291992 205.730667,552.383118 197.099106,552.059875 
	C188.163818,551.725159 182.224533,545.701050 181.931335,536.768311 
	C181.653381,528.300171 181.755798,519.813843 181.904800,511.339203 
	C182.008911,505.417175 184.886765,501.960358 189.319092,501.848511 
	C193.795044,501.735596 196.313232,504.638062 197.176758,511.357361 
z"/>
<path fill="#000000" opacity="1.000000" stroke="none" 
	d="
M220.714081,410.026550 
	C222.823257,410.209808 224.525040,410.184540 226.104309,410.611908 
	C230.134140,411.702484 232.508438,414.438171 231.998886,418.643677 
	C231.500809,422.754395 228.768295,425.183258 224.526215,425.256439 
	C217.048477,425.385437 209.563599,425.459167 202.089188,425.266296 
	C198.452484,425.172455 197.007843,426.364288 197.123245,430.109039 
	C197.333038,436.917450 197.244644,443.737946 197.156708,450.551819 
	C197.075424,456.849701 194.345428,460.256744 189.577042,460.293365 
	C184.833450,460.329803 181.965332,456.868866 181.886093,450.645569 
	C181.782410,442.502136 181.737503,434.354340 181.882126,426.212250 
	C182.055084,416.475037 188.057419,410.365845 197.812576,410.086761 
	C205.286499,409.872986 212.771042,410.031342 220.714081,410.026550 
z"/>
<path fill="#000000" opacity="1.000000" stroke="none" 
	d="
M310.351624,551.947266 
	C300.922272,552.067688 291.923187,552.215393 282.927246,552.105835 
	C277.129669,552.035217 273.727905,549.021484 273.690063,544.425842 
	C273.651093,539.692749 276.838654,536.973022 282.869904,536.878967 
	C289.867798,536.769836 296.873169,536.682739 303.866058,536.893616 
	C307.619995,537.006836 308.837311,535.585022 308.724640,531.930542 
	C308.514160,525.104187 308.629852,518.266479 308.679199,511.433960 
	C308.721375,505.593475 311.485596,502.017883 315.934082,501.885834 
	C320.401642,501.753204 323.569855,505.097900 323.740875,511.009033 
	C323.986572,519.499146 324.085175,528.016174 323.690918,536.495911 
	C323.272644,545.492554 319.478790,549.631531 310.351624,551.947266 
z"/>
<path fill="#000000" opacity="1.000000" stroke="none" 
	d="
M321.760681,457.699219 
	C318.912811,460.369812 315.963043,461.158783 312.811188,459.449768 
	C309.748657,457.789154 308.627197,454.950226 308.659912,451.503296 
	C308.726227,444.520905 308.461365,437.528717 308.746765,430.557495 
	C308.921234,426.295319 307.267700,425.104553 303.234985,425.254486 
	C296.261688,425.513702 289.270721,425.384247 282.288757,425.295380 
	C277.048676,425.228668 273.964935,422.603668 273.698242,418.244812 
	C273.429443,413.851410 276.178650,410.606873 281.436981,410.311493 
	C291.057892,409.770996 300.736816,409.497803 310.330261,410.444641 
	C318.563538,411.257172 323.249756,417.023041 323.419891,425.320435 
	C323.576630,432.963348 323.785553,440.605896 323.852936,448.249634 
	C323.880646,451.392975 323.897247,454.599792 321.760681,457.699219 
z"/>
<path fill="#000000" opacity="1.000000" stroke="none" 
	d="
M670.641052,503.976624 
	C670.629456,492.988678 670.622131,482.496674 670.603699,472.004639 
	C670.597595,468.523560 669.848755,464.930115 675.457581,464.847504 
	C683.457092,464.729736 683.924744,464.789948 684.739807,472.064362 
	C688.513000,466.484253 693.416870,464.097534 699.709290,464.760010 
	C703.298523,465.137878 705.091736,466.447815 704.372986,470.563965 
	C703.089172,477.916412 703.280151,477.949738 695.624329,478.053772 
	C689.222107,478.140808 685.650391,481.664825 685.331116,489.012970 
	C684.991577,496.826965 685.221069,504.664215 685.047668,512.487854 
	C684.996033,514.816528 686.087952,518.170349 682.847229,518.910461 
	C679.178223,519.748413 675.218689,519.897949 671.524353,518.635498 
	C670.365967,518.239624 670.612244,516.623474 670.613159,515.464111 
	C670.616150,511.800262 670.630798,508.136383 670.641052,503.976624 
z"/>
<path fill="#000000" opacity="1.000000" stroke="none" 
	d="
M726.392578,511.913544 
	C725.988098,514.682007 727.602722,518.048828 724.359863,518.866577 
	C720.723755,519.783508 716.681824,520.113647 713.137146,518.498474 
	C711.407227,517.710144 711.974060,515.213806 711.969360,513.416687 
	C711.934204,499.967407 711.914246,486.517975 711.923462,473.068604 
	C711.929016,465.012756 712.030823,464.936829 719.888611,464.918060 
	C726.425659,464.902435 726.412598,464.902435 726.406006,471.574371 
	C726.392883,484.857758 726.395691,498.141113 726.392578,511.913544 
z"/>
<path fill="#000000" opacity="1.000000" stroke="none" 
	d="
M719.050842,459.523438 
	C713.126526,458.378693 710.282959,455.149048 710.765991,450.535736 
	C711.229797,446.106232 715.221863,442.873108 719.881653,443.153259 
	C724.300293,443.418884 727.746033,446.830109 727.973816,451.164368 
	C728.213623,455.729156 725.149475,458.727631 719.050842,459.523438 
z"/>
</svg>